HIERARCHY
ROOT Hips
{
  OFFSET -460.537 92.9359 645.583
  CHANNELS 6 Xposition Yposition Zposition Zrotation Xrotation Yrotation
  JOINT Spine
  {
    OFFSET -1.50235e-05 8 1.28926e-05
    CHANNELS 6 Xposition Yposition Zposition Zrotation Xrotation Yrotation
    JOINT Spine1
    {
      OFFSET 1.68234e-05 8 0
      CHANNELS 6 Xposition Yposition Zposition Zrotation Xrotation Yrotation
      JOINT Spine2
      {
        OFFSET -1.05336e-05 8 0
        CHANNELS 6 Xposition Yposition Zposition Zrotation Xrotation Yrotation
        JOINT Spine3
        {
          OFFSET 0 8 0
          CHANNELS 6 Xposition Yposition Zposition Zrotation Xrotation Yrotation
          JOINT Neck
          {
            OFFSET 0.000163958 17 -0.000133147
            CHANNELS 6 Xposition Yposition Zposition Zrotation Xrotation Yrotation
            JOINT Head
            {
              OFFSET 1.0618e-05 10.8 2.97295e-05
              CHANNELS 6 Xposition Yposition Zposition Zrotation Xrotation Yrotation
              End Site
              {
                OFFSET 0 20.25 0
              }
            }
          }
          JOINT LeftShoulder
          {
            OFFSET 5.00014 17 5.78937e-05
            CHANNELS 6 Xposition Yposition Zposition Zrotation Xrotation Yrotation
            JOINT LeftShoulder2
            {
              OFFSET 6.45 0 0
              CHANNELS 6 Xposition Yposition Zposition Zrotation Xrotation Yrotation
              JOINT LeftArm
              {
                OFFSET 6.45006 0 -0.000288204
                CHANNELS 6 Xposition Yposition Zposition Zrotation Xrotation Yrotation
                JOINT LeftForeArm
                {
                  OFFSET 0 -32.4 -1.99631
                  CHANNELS 6 Xposition Yposition Zposition Zrotation Xrotation Yrotation
                  JOINT LeftHand
                  {
                    OFFSET 0 -25.65 2
                    CHANNELS 6 Xposition Yposition Zposition Zrotation Xrotation Yrotation
                    JOINT LeftHandThumb1
                    {
                      OFFSET -0.500017 -1.49996 2.64997
                      CHANNELS 6 Xposition Yposition Zposition Zrotation Xrotation Yrotation
                      JOINT LeftHandThumb2
                      {
                        OFFSET 2.45778e-05 -3.79998 3.70007
                        CHANNELS 6 Xposition Yposition Zposition Zrotation Xrotation Yrotation
                        JOINT LeftHandThumb3
                        {
                          OFFSET -2.06592e-05 -3.00003 2.69993
                          CHANNELS 6 Xposition Yposition Zposition Zrotation Xrotation Yrotation
                          End Site
                          {
                            OFFSET 0 -2.3 1.8
                          }
                        }
                      }
                    }
                    JOINT LeftHandIndex
                    {
                      OFFSET 4.45455e-05 -1.90005 1.60001
                      CHANNELS 6 Xposition Yposition Zposition Zrotation Xrotation Yrotation
                      JOINT LeftHandIndex1
                      {
                        OFFSET -2.6158e-05 -8.29998 1.89998
                        CHANNELS 6 Xposition Yposition Zposition Zrotation Xrotation Yrotation
                        JOINT LeftHandIndex2
                        {
                          OFFSET 0 -4.49994 0
                          CHANNELS 6 Xposition Yposition Zposition Zrotation Xrotation Yrotation
                          JOINT LeftHandIndex3
                          {
                            OFFSET -3.33228e-05 -3.41568 0
                            CHANNELS 6 Xposition Yposition Zposition Zrotation Xrotation Yrotation
                            End Site
                            {
                              OFFSET -2.85255e-05 -2.59992 -1.07488e-05
                            }
                          }
                        }
                      }
                    }
                    JOINT LeftHandMiddle
                    {
                      OFFSET -0.249994 -2.19999 0.4
                      CHANNELS 6 Xposition Yposition Zposition Zrotation Xrotation Yrotation
                      JOINT LeftHandMiddle1
                      {
                        OFFSET 0 -8.29994 1
                        CHANNELS 6 Xposition Yposition Zposition Zrotation Xrotation Yrotation
                        JOINT LeftHandMiddle2
                        {
                          OFFSET -3.87171e-05 -4.65002 -1.8442e-05
                          CHANNELS 6 Xposition Yposition Zposition Zrotation Xrotation Yrotation
                          JOINT LeftHandMiddle3
                          {
                            OFFSET 0 -3.3 1.96775e-05
                            CHANNELS 6 Xposition Yposition Zposition Zrotation Xrotation Yrotation
                            End Site
                            {
                              OFFSET -6.79762e-05 -2.69998 -1.06235e-05
                            }
                          }
                        }
                      }
                    }
                    JOINT LeftHandRing
                    {
                      OFFSET -0.500008 -2.15003 -0.8
                      CHANNELS 6 Xposition Yposition Zposition Zrotation Xrotation Yrotation
                      JOINT LeftHandRing1
                      {
                        OFFSET 1.40628e-05 -7.74998 -0.200003
                        CHANNELS 6 Xposition Yposition Zposition Zrotation Xrotation Yrotation
                        JOINT LeftHandRing2
                        {
                          OFFSET -2.59222e-05 -3.8412 -1.73131e-05
                          CHANNELS 6 Xposition Yposition Zposition Zrotation Xrotation Yrotation
                          JOINT LeftHandRing3
                          {
                            OFFSET 0 -3.39998 0
                            CHANNELS 6 Xposition Yposition Zposition Zrotation Xrotation Yrotation
                            End Site
                            {
                              OFFSET -4.5441e-05 -2.60004 0
                            }
                          }
                        }
                      }
                    }
                    JOINT LeftHandPinky
                    {
                      OFFSET -0.750011 -1.74998 -1.85001
                      CHANNELS 6 Xposition Yposition Zposition Zrotation Xrotation Yrotation
                      JOINT LeftHandPinky1
                      {
                        OFFSET -3.17983e-05 -7.15002 -1
                        CHANNELS 6 Xposition Yposition Zposition Zrotation Xrotation Yrotation
                        JOINT LeftHandPinky2
                        {
                          OFFSET 1.88996e-05 -3.00757 0
                          CHANNELS 6 Xposition Yposition Zposition Zrotation Xrotation Yrotation
                          JOINT LeftHandPinky3
                          {
                            OFFSET 1.34399e-05 -2.35001 -1.32041e-05
                            CHANNELS 6 Xposition Yposition Zposition Zrotation Xrotation Yrotation
                            End Site
                            {
                              OFFSET 0 -2.10001 3.01657e-05
                            }
                          }
                        }
                      }
                    }
                  }
                }
              }
            }
          }
          JOINT RightShoulder
          {
            OFFSET -4.99984 17 -0.000345105
            CHANNELS 6 Xposition Yposition Zposition Zrotation Xrotation Yrotation
            JOINT RightShoulder2
            {
              OFFSET -6.45 0 0
              CHANNELS 6 Xposition Yposition Zposition Zrotation Xrotation Yrotation
              JOINT RightArm
              {
                OFFSET -6.45004 0.000415605 -0.0012841
                CHANNELS 6 Xposition Yposition Zposition Zrotation Xrotation Yrotation
                JOINT RightForeArm
                {
                  OFFSET -5.60843e-05 -32.4 -2.00005
                  CHANNELS 6 Xposition Yposition Zposition Zrotation Xrotation Yrotation
                  JOINT RightHand
                  {
                    OFFSET 4.05469e-05 -25.65 2.00004
                    CHANNELS 6 Xposition Yposition Zposition Zrotation Xrotation Yrotation
                    JOINT RightHandThumb1
                    {
                      OFFSET 0.500003 -1.49999 2.64998
                      CHANNELS 6 Xposition Yposition Zposition Zrotation Xrotation Yrotation
                      JOINT RightHandThumb2
                      {
                        OFFSET 0 -3.80005 3.70001
                        CHANNELS 6 Xposition Yposition Zposition Zrotation Xrotation Yrotation
                        JOINT RightHandThumb3
                        {
                          OFFSET -1.98612e-05 -3 2.7
                          CHANNELS 6 Xposition Yposition Zposition Zrotation Xrotation Yrotation
                          End Site
                          {
                            OFFSET 0 -2.29999 1.8
                          }
                        }
                      }
                    }
                    JOINT RightHandIndex
                    {
                      OFFSET 6.75756e-05 -1.89991 1.59998
                      CHANNELS 6 Xposition Yposition Zposition Zrotation Xrotation Yrotation
                      JOINT RightHandIndex1
                      {
                        OFFSET -4.49042e-05 -8.30005 1.89997
                        CHANNELS 6 Xposition Yposition Zposition Zrotation Xrotation Yrotation
                        JOINT RightHandIndex2
                        {
                          OFFSET -3.81389e-05 -4.49998 5.81687e-05
                          CHANNELS 6 Xposition Yposition Zposition Zrotation Xrotation Yrotation
                          JOINT RightHandIndex3
                          {
                            OFFSET 6.09094e-05 -3.4 -2.74986e-05
                            CHANNELS 6 Xposition Yposition Zposition Zrotation Xrotation Yrotation
                            End Site
                            {
                              OFFSET -3.07203e-05 -2.6 1.27057e-05
                            }
                          }
                        }
                      }
                    }
                    JOINT RightHandMiddle
                    {
                      OFFSET 0.249993 -2.20001 0.400022
                      CHANNELS 6 Xposition Yposition Zposition Zrotation Xrotation Yrotation
                      JOINT RightHandMiddle1
                      {
                        OFFSET 2.98789e-05 -8.29992 0.999991
                        CHANNELS 6 Xposition Yposition Zposition Zrotation Xrotation Yrotation
                        JOINT RightHandMiddle2
                        {
                          OFFSET -4.00046e-05 -4.65004 -3.88342e-05
                          CHANNELS 6 Xposition Yposition Zposition Zrotation Xrotation Yrotation
                          JOINT RightHandMiddle3
                          {
                            OFFSET 6.47647e-05 -3.29997 0
                            CHANNELS 6 Xposition Yposition Zposition Zrotation Xrotation Yrotation
                            End Site
                            {
                              OFFSET -7.85104e-05 -2.69996 6.33542e-05
                            }
                          }
                        }
                      }
                    }
                    JOINT RightHandRing
                    {
                      OFFSET 0.499997 -2.15002 -0.800028
                      CHANNELS 6 Xposition Yposition Zposition Zrotation Xrotation Yrotation
                      JOINT RightHandRing1
                      {
                        OFFSET 3.59678e-05 -7.74998 -0.200022
                        CHANNELS 6 Xposition Yposition Zposition Zrotation Xrotation Yrotation
                        JOINT RightHandRing2
                        {
                          OFFSET 1.03436e-05 -3.80001 1.63319e-05
                          CHANNELS 6 Xposition Yposition Zposition Zrotation Xrotation Yrotation
                          JOINT RightHandRing3
                          {
                            OFFSET -5.49501e-05 -3.39998 0
                            CHANNELS 6 Xposition Yposition Zposition Zrotation Xrotation Yrotation
                            End Site
                            {
                              OFFSET -2.16082e-05 -2.59999 -2.58971e-05
                            }
                          }
                        }
                      }
                    }
                    JOINT RightHandPinky
                    {
                      OFFSET 0.750022 -1.74995 -1.84997
                      CHANNELS 6 Xposition Yposition Zposition Zrotation Xrotation Yrotation
                      JOINT RightHandPinky1
                      {
                        OFFSET -1.73718e-05 -7.15 -0.999989
                        CHANNELS 6 Xposition Yposition Zposition Zrotation Xrotation Yrotation
                        JOINT RightHandPinky2
                        {
                          OFFSET 0 -2.99998 1.87713e-05
                          CHANNELS 6 Xposition Yposition Zposition Zrotation Xrotation Yrotation
                          JOINT RightHandPinky3
                          {
                            OFFSET -3.43647e-05 -2.35004 0
                            CHANNELS 6 Xposition Yposition Zposition Zrotation Xrotation Yrotation
                            End Site
                            {
                              OFFSET 0 -2.09993 0
                            }
                          }
                        }
                      }
                    }
                  }
                }
              }
            }
          }
        }
      }
    }
  }
  JOINT LeftUpLeg
  {
    OFFSET 7.99999 0 1.58695e-05
    CHANNELS 6 Xposition Yposition Zposition Zrotation Xrotation Yrotation
    JOINT LeftLeg
    {
      OFFSET 0 -45 -1.00001
      CHANNELS 6 Xposition Yposition Zposition Zrotation Xrotation Yrotation
      JOINT LeftFoot
      {
        OFFSET 3.08295e-05 -41 -2
        CHANNELS 6 Xposition Yposition Zposition Zrotation Xrotation Yrotation
        JOINT LeftToeBase
        {
          OFFSET 0 -7.5 12.5
          CHANNELS 6 Xposition Yposition Zposition Zrotation Xrotation Yrotation
          JOINT LeftFootToe
          {
            OFFSET 0 0 4
            CHANNELS 6 Xposition Yposition Zposition Zrotation Xrotation Yrotation
            End Site
            {
              OFFSET 0 0 0
            }
          }
        }
      }
    }
  }
  JOINT RightUpLeg
  {
    OFFSET -7.99999 0 -1.58695e-05
    CHANNELS 6 Xposition Yposition Zposition Zrotation Xrotation Yrotation
    JOINT RightLeg
    {
      OFFSET -1.50822e-05 -45 -0.999914
      CHANNELS 6 Xposition Yposition Zposition Zrotation Xrotation Yrotation
      JOINT RightFoot
      {
        OFFSET 3.18811e-05 -41.0001 -2.00009
        CHANNELS 6 Xposition Yposition Zposition Zrotation Xrotation Yrotation
        JOINT RightToeBase
        {
          OFFSET -2.48902e-05 -7.5 12.5
          CHANNELS 6 Xposition Yposition Zposition Zrotation Xrotation Yrotation
          JOINT RightFootToe
          {
            OFFSET 0 0 4
            CHANNELS 6 Xposition Yposition Zposition Zrotation Xrotation Yrotation
            End Site
            {
              OFFSET 0 0 0
            }
          }
        }
      }
    }
  }
}
MOTION
Frames:	2
Frame Time:	0.0111111
-444.793 91.7581 641.154 2.67058 5.41677 -116.543 -1.54449e-05 8 3.39104e-06 9.62857 6.71672 5.81735 3.05323e-06 8 -2.13291e-05 0.855951 3.31802 2.00628 7.34485e-06 8 3.403e-05 0.442455 1.65584 1.00922 -1.13687e-13 8 5.68434e-14 0.442211 1.65443 1.00787 -0.000172248 17 -0.00025595 1.29647 4.13865 14.0688 3.49616e-05 10.8 1.10897e-05 -0.120868 5.67941 33.3271 4.9998 17 -0.000193509 -0.249986 2.85951 -3.9113 6.45 -4.26326e-14 2.84217e-14 -0.921663 -0.572967 -0.552347 6.45002 0.000119746 0.000350531 20.2799 -39.8783 45.119 -4.90135e-06 -32.4 -1.99695 -26.1089 -19.1705 6.67002 -1.03261e-05 -25.65 2 -43.3324 10.8821 25.9697 -0.499992 -1.49998 2.64999 -3.57229 -29.8548 -0.884372 -4.13717e-07 -3.79998 3.70004 -0.090162 8.16119 -0.00583013 3.5402e-07 -3.00004 2.69995 -0.148985 5.57469 -0.0260348 1.35361e-05 -1.90009 1.59998 2.46703e-06 2.62362e-06 -9.85211e-06 6.88047e-06 -8.29995 1.9 -2.1323 -12.1007 -0.145638 -2.07565e-06 -4.49996 -5.41051e-06 -0.0436537 0.00348813 0.00244682 -4.28726e-05 -3.4239 2.15166e-05 -0.0493812 0.00380691 0.00245028 -0.249993 -2.2 0.4 2.46703e-06 2.62362e-06 -9.85211e-06 -1.49941e-05 -8.29998 0.999993 -5.74601 2.87528 0.572482 -2.49051e-09 -4.64997 1.1277e-06 -3.4388 -0.0372336 -0.0206349 -2.56664e-05 -3.30004 1.15377e-05 -3.2494 -0.0306809 -0.0205986 -0.500014 -2.15006 -0.800018 2.46703e-06 2.62362e-06 -9.85211e-06 -8.50461e-06 -7.75001 -0.199999 -9.83087 16.4143 2.33072 1.00437e-05 -3.84935 9.02652e-07 -4.28221 -0.0416685 -0.0400696 -1.27827e-05 -3.40003 1.35011e-05 -2.69639 -0.0369136 -0.0374773 -0.75002 -1.75003 -1.85001 2.46703e-06 2.62362e-06 -9.85211e-06 -1.75934e-05 -7.15 -0.999996 -13.9302 24.0387 4.24092 1.19021e-05 -3.00609 8.67009e-07 -31.732 0.0109521 0.0138102 -1.80488e-05 -2.35002 5.30195e-06 -16.2351 0.00360297 0.00971112 -5.0002 16.9999 -0.000337222 -4.98865 2.74164 8.92506 -6.45 -2.84217e-14 5.68434e-14 -1.31716 -0.164299 -4.78471 -6.44999 0.000195905 -0.000384437 -2.47416 -37.4452 -7.03325 -7.16054e-05 -32.4 -1.99994 20.5592 -54.413 11.8602 5.84589e-05 -25.65 1.99999 -29.6339 20.0455 -1.42585 0.499998 -1.50004 2.65002 -178.509 -26.8296 -76.9218 -5.89644e-05 -3.80006 3.70003 0.0968323 29.7395 0.0421146 -8.6633e-06 -3 2.69999 0.0845616 24.5664 -0.513118 6.03382e-05 -1.89997 1.6 -1.94285e-06 -5.14492e-06 -3.56741e-06 -6.11137e-05 -8.30001 1.89996 18.8039 5.42536 -1.02647 -3.22397e-05 -4.49998 4.85188e-05 3.41794 -0.00262643 -0.00703392 4.50079e-05 -3.39999 -1.6755e-05 3.26044 -0.00238841 0.00795512 0.249969 -2.19998 0.400045 -1.94285e-06 -5.14492e-06 -3.56741e-06 2.38203e-05 -8.29996 0.999989 29.6231 10.2045 -3.59923 -1.20684e-05 -4.65003 -2.47509e-05 68.5274 -0.000642951 0.0072131 3.49888e-05 -3.29996 -1.01941e-05 46.7565 0.00883823 0.00687344 0.499994 -2.15003 -0.799997 -1.94285e-06 -5.14492e-06 -3.56741e-06 3.32831e-05 -7.75001 -0.200036 49.823 2.00585 -3.56788 4.06855e-06 -3.8 1.66202e-05 69.2622 -0.00499166 -0.0274196 -2.5278e-05 -3.39995 -9.48401e-06 51.1439 -0.0180447 -0.0256107 0.750031 -1.74996 -1.84996 -1.94285e-06 -5.14492e-06 -3.56741e-06 -3.73632e-05 -7.15 -0.999996 64.8117 -3.15738 -3.41902 -5.09541e-06 -2.99998 2.36568e-05 45.6258 0.0225589 -0.0370416 -1.51668e-05 -2.35003 -1.12032e-05 31.6315 -0.000144222 -0.0277263 8.00001 7.23544e-08 -1.02509e-05 24.519 -26.1304 21.5601 6.78584e-06 -45 -1.00005 0.761483 2.42357 0.882381 4.7885e-06 -41 -2.00001 -9.24623 17.1745 -14.9278 -1.91192e-05 -7.5 12.5 -1.90769e-07 0.189947 3.73165e-09 0 1.42109e-14 4 -5.13041 -4.10623 -14.3905 -8.00001 -7.23545e-08 1.02509e-05 3.09072 -7.44094 -16.0874 8.32895e-06 -45 -1.00001 -0.0270628 15.2755 -5.30781 -5.4844e-06 -41 -2.00006 8.23788 -9.36136 -26.4051 2.94971e-05 -7.5 12.5 -0.000181902 -1.56707e-05 4.73583e-05 0 0 4 0.961291 -2.10959 1.03494 
-444.733 91.7542 641.127 2.66699 5.41478 -116.536 -1.54449e-05 8 3.39104e-06 9.63311 6.7252 5.79874 3.05323e-06 8 -2.13291e-05 0.861133 3.35894 1.99481 7.34485e-06 8 3.403e-05 0.445318 1.67632 1.00355 0 8 2.84217e-14 0.445027 1.67529 1.00257 -0.000172248 17 -0.00025595 1.25784 4.07466 14.0336 3.49616e-05 10.8 1.10897e-05 -0.131595 5.63362 33.238 4.9998 17 -0.000193509 -0.31818 2.77845 -3.87435 6.45 0 2.84217e-14 -0.903179 -0.591007 -0.5827 6.45002 0.000119746 0.000350531 20.1003 -40.1713 45.1453 -4.90135e-06 -32.4 -1.99695 -26.2784 -19.3327 7.65638 -1.03261e-05 -25.65 2 -43.4252 10.8461 26.6255 -0.499992 -1.49998 2.64999 -3.5956 -29.8506 -0.997951 -4.13717e-07 -3.79998 3.70004 -0.0899128 8.16142 -0.00614714 3.5402e-07 -3.00004 2.69995 -0.165639 7.63145 -0.0278858 1.35361e-05 -1.90009 1.59998 2.46703e-06 2.62362e-06 -9.85211e-06 6.88047e-06 -8.29995 1.9 -2.12022 -12.0726 -0.143241 -2.07565e-06 -4.49996 -5.41051e-06 0.0214614 0.00153565 0.0026972 -4.28726e-05 -3.4239 2.15166e-05 0.0209034 0.00160346 0.00274333 -0.249993 -2.2 0.4 2.46703e-06 2.62362e-06 -9.85211e-06 -1.49941e-05 -8.29998 0.999993 -6.27266 3.22582 0.625815 -2.49054e-09 -4.64997 1.1277e-06 -4.21014 -0.0400588 -0.0255494 -2.56664e-05 -3.30004 1.15377e-05 -3.93933 -0.0320329 -0.0252911 -0.500014 -2.15006 -0.800018 2.46703e-06 2.62362e-06 -9.85211e-06 -8.50461e-06 -7.75001 -0.199999 -11.1727 16.6455 2.59325 1.00437e-05 -3.84935 9.02652e-07 -5.11703 -0.0428931 -0.0436765 -1.27827e-05 -3.40003 1.35011e-05 -3.45583 -0.0376697 -0.0407519 -0.75002 -1.75003 -1.85001 2.46703e-06 2.62362e-06 -9.85211e-06 -1.75934e-05 -7.15 -0.999996 -16.0524 24.1416 4.78137 1.19021e-05 -3.00609 8.67009e-07 -30.9478 0.002184 0.0166769 -1.80488e-05 -2.35002 5.30195e-06 -15.7231 -0.000706316 0.0108417 -5.0002 16.9999 -0.000337222 -4.98219 2.64904 8.96163 -6.45 -2.84217e-14 1.13687e-13 -1.35215 -0.115258 -4.84862 -6.44999 0.000195905 -0.000384437 -2.37221 -37.5806 -6.88144 -7.16054e-05 -32.4 -1.99994 20.5136 -54.1617 11.5545 5.84589e-05 -25.65 1.99999 -29.0201 19.9602 -2.12988 0.499998 -1.50004 2.65002 179.951 -26.4457 -77.8044 -5.89644e-05 -3.80006 3.70003 0.0968225 29.7395 0.0418617 -8.6633e-06 -3 2.69999 0.0838769 24.5664 -0.51281 6.03382e-05 -1.89997 1.6 -1.94285e-06 -5.14492e-06 -3.56741e-06 -6.11137e-05 -8.30001 1.89996 19.1459 5.72656 -1.10088 -3.22398e-05 -4.49998 4.85188e-05 3.34525 -0.000932563 -0.00624212 4.50079e-05 -3.39999 -1.6755e-05 3.19277 -0.000833094 0.00813177 0.249969 -2.19998 0.400045 -1.94285e-06 -5.14492e-06 -3.56741e-06 2.38203e-05 -8.29996 0.999989 30.1771 10.3164 -3.714 -1.20684e-05 -4.65003 -2.47509e-05 68.2681 -0.000410087 0.00584511 3.49888e-05 -3.29996 -1.01941e-05 46.5028 0.00783712 0.005951 0.499994 -2.15003 -0.799997 -1.94285e-06 -5.14492e-06 -3.56741e-06 3.32831e-05 -7.75001 -0.200036 50.4752 2.10397 -3.70463 4.06855e-06 -3.8 1.66202e-05 68.3019 -0.00487094 -0.0305911 -2.5278e-05 -3.39995 -9.48401e-06 50.1119 -0.0181934 -0.0301425 0.750031 -1.74996 -1.84996 -1.94285e-06 -5.14492e-06 -3.56741e-06 -3.73632e-05 -7.15 -0.999996 65.3099 -2.99901 -3.59434 -5.09541e-06 -2.99998 2.36568e-05 44.3259 0.0276897 -0.037145 -1.51668e-05 -2.35003 -1.12032e-05 30.8048 0.00219563 -0.0292773 8.00001 7.23544e-08 -1.02509e-05 24.5524 -26.155 21.5963 6.78584e-06 -45 -1.00005 0.761038 2.42021 0.864435 4.7885e-06 -41 -2.00001 -9.23336 17.0746 -14.9512 -1.91192e-05 -7.5 12.5 -1.90769e-07 0.189452 3.73165e-09 0 0 4 -5.19244 -4.00203 -14.3777 -8.00001 -7.23545e-08 1.02509e-05 3.11502 -7.49585 -16.0797 8.32895e-06 -45 -1.00001 -0.0264163 15.3324 -5.29975 -5.4844e-06 -41 -2.00006 8.1949 -9.37729 -26.4132 2.94971e-05 -7.5 12.5 -0.000181902 -1.57062e-05 4.73583e-05 0 0 4 1.00485 -2.10885 1.03509 
